<?xml version="1.0" standalone="no"?>
<!DOCTYPE svg PUBLIC "-//W3C//DTD SVG 20010904//EN"
 "http://www.w3.org/TR/2001/REC-SVG-20010904/DTD/svg10.dtd">
<svg version="1.0" xmlns="http://www.w3.org/2000/svg"
 width="500.000000pt" height="500.000000pt" viewBox="0 0 500.000000 500.000000"
 preserveAspectRatio="xMidYMid meet">

<g transform="translate(0.000000,500.000000) scale(0.100000,-0.100000)"
fill="#000000" stroke="none">
<path d="M2776 3668 c4 -18 18 -58 33 -89 l26 -57 -67 -6 c-76 -7 -151 -33
-145 -50 6 -18 66 -55 129 -77 l58 -22 -45 -48 c-45 -48 -105 -157 -105 -191
0 -35 75 -21 205 38 6 2 11 -21 11 -60 2 -80 22 -166 38 -166 24 0 97 120 131
215 6 18 9 16 25 -15 55 -107 99 -293 107 -450 6 -102 -13 -822 -23 -867 -4
-21 -10 -23 -69 -23 l-65 0 -2 422 -3 423 -222 97 -223 97 -22 -22 c-13 -12
-65 -47 -115 -77 l-93 -55 0 -68 0 -69 55 31 c30 17 80 45 110 62 30 17 55 27
55 22 0 -4 -48 -35 -108 -68 l-107 -61 -6 -49 c-4 -32 -6 -2 -7 83 -1 82 2
132 8 132 6 0 10 23 10 51 l0 50 -55 25 c-31 13 -58 24 -60 24 -3 0 -5 -236
-5 -525 0 -340 -3 -525 -10 -525 -6 0 -11 189 -12 532 l-3 532 -55 22 -55 22
-3 -554 c-1 -355 -6 -554 -12 -554 -6 0 -11 202 -12 561 l-3 561 -57 23 -58
24 0 -585 c0 -383 -3 -584 -10 -584 -7 0 -10 203 -10 589 l0 589 -64 27 -63
27 -116 -71 c-64 -39 -119 -71 -122 -71 -4 0 -5 9 -3 20 2 13 44 45 123 95
101 62 120 71 123 56 2 -10 19 -25 40 -33 20 -9 161 -67 313 -131 152 -64 282
-117 290 -119 9 -2 14 5 14 20 0 21 -32 37 -323 163 l-322 140 -135 -82 -135
-82 0 -568 0 -568 -47 -4 c-27 -2 422 -4 997 -4 575 0 1032 2 1015 6 l-30 6
-9 265 c-10 286 -4 367 34 481 12 35 25 68 29 72 5 4 20 -16 35 -46 48 -100
74 -100 83 0 l5 59 59 -20 c32 -11 61 -18 64 -14 13 13 -7 70 -41 113 -19 25
-34 47 -34 49 0 2 17 11 38 19 20 9 45 22 55 29 17 12 17 16 4 26 -8 7 -38 15
-67 19 -56 6 -55 5 -29 70 7 18 10 35 7 39 -15 14 -60 -9 -105 -54 l-49 -49
-26 27 c-28 28 -75 54 -120 65 -23 6 -28 4 -28 -12 0 -10 11 -35 25 -55 14
-20 25 -39 25 -41 0 -3 -19 -9 -43 -15 -24 -6 -63 -26 -87 -43 l-45 -33 40
-18 c22 -9 57 -18 78 -18 43 0 44 -2 19 -38 -22 -32 -44 -93 -37 -101 8 -7 76
19 109 42 20 14 28 16 23 6 -77 -179 -87 -242 -87 -570 l0 -259 -69 0 -69 0
-5 458 c-4 370 -8 473 -21 542 -21 104 -65 240 -106 321 l-31 61 45 -32 c55
-37 144 -80 169 -80 29 0 20 43 -27 135 l-44 85 42 1 c22 1 52 5 66 9 14 4 -6
5 -47 2 l-72 -5 -51 46 c-30 27 -72 53 -102 63 l-52 17 22 18 c36 29 120 43
179 31 83 -18 158 -50 199 -86 l39 -34 -45 -21 c-25 -11 -39 -21 -32 -21 7 0
31 9 53 21 l41 20 -22 24 c-31 33 -124 80 -197 101 l-61 17 34 47 c29 41 64
108 64 125 0 3 -15 5 -34 5 -50 0 -167 -63 -216 -116 -23 -25 -43 -44 -44 -42
-1 2 -12 19 -24 39 -26 43 -110 110 -166 133 -53 22 -56 21 -50 -16z m72 -7
c86 -45 174 -154 158 -197 -5 -13 -10 -12 -37 7 -17 12 -50 27 -72 33 -37 11
-46 19 -74 76 -34 64 -41 100 -23 100 6 0 27 -9 48 -19z m442 -11 c0 -19 -40
-89 -70 -124 -22 -25 -41 -35 -73 -40 -23 -4 -62 -18 -86 -31 -24 -14 -45 -24
-47 -22 -13 12 24 86 62 124 66 65 214 130 214 93z m-420 -151 c25 -5 63 -22
85 -36 l40 -26 -55 -12 c-30 -6 -69 -19 -87 -28 -28 -15 -36 -15 -77 -3 -76
23 -167 84 -128 86 4 1 30 7 57 15 61 17 105 18 165 4z m130 -88 c0 -5 -11
-16 -25 -25 -31 -21 -71 -88 -85 -148 -10 -38 -19 -52 -48 -68 -41 -25 -158
-58 -168 -48 -10 10 42 115 83 170 21 26 54 60 74 74 57 39 169 69 169 45z
m155 -56 c29 -20 71 -62 94 -94 42 -61 89 -167 78 -177 -13 -13 -154 65 -208
114 -48 44 -57 58 -62 97 -4 25 -14 59 -23 77 l-16 31 42 -6 c25 -3 64 -20 95
-42z m-125 -1 c22 -43 18 -156 -8 -229 -23 -63 -86 -165 -102 -165 -36 0 -39
242 -4 320 25 54 72 112 88 107 6 -2 18 -17 26 -33z m57 -186 c-15 -10 -37 19
-30 39 5 13 9 11 24 -8 13 -17 14 -26 6 -31z m41 -54 c21 -43 22 -64 2 -64
-12 0 -51 90 -44 101 10 17 20 9 42 -37z m53 -120 c17 -45 17 -50 1 -62 -20
-15 -26 -8 -42 50 -22 83 13 93 41 12z m-1378 -95 c-9 -8 -234 -139 -239 -139
-2 0 -4 24 -4 54 l0 55 123 74 122 73 3 -54 c2 -30 -1 -58 -5 -63z m1907 54
c0 -17 -43 -93 -53 -94 -7 -1 19 -5 56 -9 89 -9 102 -22 49 -49 -50 -26 -63
-26 -127 -3 -61 22 -68 45 -28 92 37 44 103 85 103 63z m-214 -44 c32 -19 74
-71 74 -91 0 -3 -20 -14 -44 -23 -25 -10 -55 -28 -67 -41 -26 -27 -80 -31
-138 -10 l-34 12 27 21 c61 48 153 64 221 39 20 -8 20 -7 1 8 -11 9 -33 16
-48 16 -23 0 -34 9 -58 47 -17 26 -30 50 -30 54 0 12 57 -7 96 -32z m-276 -49
c14 -66 14 -65 -16 -74 -19 -6 -22 -1 -31 56 -12 70 -10 78 16 78 14 0 21 -14
31 -60z m-1410 -37 l0 -58 -118 -67 c-65 -38 -121 -68 -125 -68 -4 0 -7 25 -7
55 l0 54 118 70 c64 39 120 71 125 71 4 0 7 -26 7 -57z m992 -98 l193 -84 3
-65 c2 -41 -1 -66 -8 -66 -14 0 -392 151 -407 163 -8 6 -13 35 -13 79 0 83
-27 86 232 -27z m881 37 c36 -24 97 -111 97 -138 0 -15 -51 -4 -96 19 -22 11
-33 26 -38 47 -7 35 -42 90 -58 90 -5 0 1 -13 15 -29 14 -17 30 -53 37 -80 14
-58 5 -154 -14 -149 -16 5 -66 107 -73 151 -4 24 0 53 12 83 16 43 19 45 49
39 17 -4 48 -19 69 -33z m-137 -26 c-12 -54 -59 -101 -128 -129 -35 -15 -38
-15 -38 2 0 22 49 99 87 134 23 22 81 49 89 43 1 -1 -3 -23 -10 -50z m-302 -2
c11 -80 9 -86 -21 -82 -26 3 -28 7 -31 52 -4 60 2 76 26 76 15 0 21 -10 26
-46z m-1441 -105 c-9 -8 -234 -139 -239 -139 -2 0 -4 26 -4 59 l0 58 123 71
122 71 3 -56 c2 -31 -1 -59 -5 -64z m1721 -13 c-10 -20 -21 -36 -26 -36 -12 0
-10 5 13 45 27 45 36 39 13 -9z m-728 -44 l199 -78 3 -77 c2 -47 -1 -77 -7
-77 -6 0 -103 37 -216 82 l-205 82 0 73 c0 54 3 73 13 73 7 0 103 -35 213 -78z
m454 8 l0 -60 -31 0 c-28 0 -31 3 -25 23 3 12 6 39 6 60 0 33 3 37 25 37 24 0
25 -3 25 -60z m-1442 -27 l-3 -57 -114 -68 c-63 -38 -119 -68 -123 -68 -5 0
-8 26 -6 57 l3 57 115 68 c63 37 119 68 123 68 4 0 7 -26 5 -57z m1684 -18
c-4 -25 -19 -42 -28 -33 -7 8 17 68 26 63 4 -2 5 -16 2 -30z m-242 -115 l0
-90 -30 0 -30 0 0 90 0 90 30 0 30 0 0 -90z m-690 73 c0 -10 -108 -68 -114
-62 -5 5 91 66 107 68 4 1 7 -2 7 -6z m911 -16 c-1 -4 -1 -20 -1 -37 0 -20 -5
-30 -15 -30 -17 0 -18 4 -9 49 4 18 11 30 16 29 5 -2 9 -7 9 -11z m-1661 -54
l0 -58 -77 -45 c-42 -25 -98 -58 -125 -73 l-48 -29 0 60 0 59 123 72 c67 39
123 71 125 71 1 0 2 -26 2 -57z m985 -22 l200 -79 3 -86 c1 -47 1 -86 -2 -86
-3 0 -38 13 -79 28 -51 20 -96 48 -147 91 -41 34 -102 76 -137 93 -63 31 -63
31 -63 74 0 29 4 44 13 44 6 0 102 -36 212 -79z m-402 23 c25 -5 27 -9 27 -57
l0 -52 -75 9 -75 10 0 54 0 54 48 -6 c26 -4 59 -9 75 -12z m190 -51 c36 -15
37 -16 37 -70 0 -49 -2 -54 -17 -48 -10 4 -49 18 -88 30 l-70 23 -3 56 -3 55
53 -16 c29 -8 70 -22 91 -30z m877 -8 c0 -24 -5 -35 -15 -35 -10 0 -15 11 -15
35 0 24 5 35 15 35 10 0 15 -11 15 -35z m-1650 -77 l0 -63 -118 -67 c-65 -38
-121 -68 -125 -68 -4 0 -7 26 -7 58 l0 57 123 72 c67 40 123 72 125 72 1 1 2
-27 2 -61z m901 14 c52 -36 54 -39 57 -89 l3 -52 -57 34 c-32 19 -61 35 -66
35 -4 0 -8 25 -8 55 0 30 4 55 8 55 5 0 33 -17 63 -38z m-313 1 c19 -5 22 -11
22 -60 0 -44 -3 -54 -14 -50 -8 3 -42 9 -75 13 l-61 7 0 55 0 55 53 -7 c28 -4
62 -10 75 -13z m852 -73 l0 -90 -35 0 -35 0 0 68 c0 96 6 112 41 112 l29 0 0
-90z m210 44 c0 -28 -3 -35 -17 -32 -12 2 -19 14 -21 36 -3 27 0 32 17 32 17
0 21 -6 21 -36z m-917 -11 l77 -26 0 -55 c0 -48 -2 -53 -17 -47 -10 4 -49 18
-88 30 l-70 23 -3 51 c-4 61 -4 61 101 24z m282 -67 c19 -25 25 -44 23 -67
l-3 -32 -32 27 c-27 23 -33 35 -33 67 0 48 11 49 45 5z m635 -22 c0 -47 -3
-55 -17 -52 -14 2 -19 15 -21 56 -3 47 -1 52 17 52 19 0 21 -6 21 -56z m-782
29 c95 -58 92 -54 92 -110 l0 -52 -57 35 c-31 19 -60 34 -65 34 -4 0 -8 25 -8
55 0 30 2 55 5 55 3 0 18 -7 33 -17z m-868 -62 l0 -68 -82 -48 c-46 -26 -102
-59 -125 -72 l-43 -25 0 70 0 69 123 72 c67 39 123 71 125 71 1 0 2 -31 2 -69z
m588 42 c19 -5 22 -12 22 -58 l0 -54 -57 4 -58 4 58 -11 57 -10 0 -55 c0 -34
-4 -52 -10 -48 -6 3 -38 9 -73 13 l-62 7 -3 53 c-3 44 0 52 15 53 17 1 17 2 1
6 -15 4 -18 16 -18 60 l0 56 53 -7 c28 -4 62 -10 75 -13z m545 -26 l57 -22 0
-87 0 -87 -67 28 -68 27 -5 87 c-4 75 -3 86 10 82 8 -3 41 -16 73 -28z m-385
-19 l57 -23 3 -53 c2 -40 0 -53 -10 -50 -7 2 -48 15 -90 28 l-78 25 0 54 0 54
30 -7 c17 -3 56 -16 88 -28z m270 -41 c17 -16 22 -31 22 -69 0 -26 -4 -48 -8
-48 -5 0 -20 13 -35 28 -22 22 -27 38 -27 76 0 51 4 52 48 13z m422 -62 l0
-95 -41 0 -42 0 6 68 c4 37 7 79 7 95 0 24 4 27 35 27 l35 0 0 -95z m210 41
c0 -19 3 -41 6 -50 5 -12 0 -16 -20 -16 -25 0 -26 3 -26 50 0 43 3 50 20 50
16 0 20 -7 20 -34z m-782 7 c95 -58 92 -54 92 -111 0 -30 -3 -52 -7 -50 -5 2
-34 18 -65 36 l-58 34 0 54 c0 30 2 54 5 54 3 0 18 -7 33 -17z m-868 -153 l0
-130 -125 0 -125 0 0 58 0 57 123 72 c67 39 123 72 125 72 1 1 2 -57 2 -129z
m747 86 l58 -22 3 -56 3 -56 -73 28 c-40 16 -81 31 -90 34 -14 4 -18 16 -18
56 l0 52 30 -7 c16 -4 56 -17 87 -29z m271 -39 c18 -17 22 -31 22 -75 l0 -54
-34 29 c-31 25 -35 33 -35 81 -1 57 3 58 47 19z m117 -6 l50 -19 3 -76 3 -76
-71 0 -70 0 0 101 c0 113 -9 106 85 70z m523 -34 c3 -56 2 -58 -20 -55 -19 2
-23 10 -26 47 -4 54 3 73 25 69 14 -2 19 -15 21 -61z m-725 -19 c23 -17 27
-26 27 -69 0 -61 -11 -63 -80 -13 -50 36 -50 36 -50 91 l0 55 38 -23 c20 -12
49 -31 65 -41z m-340 26 c14 -5 17 -20 17 -75 l0 -69 -75 0 -75 0 0 81 0 82
58 -6 c32 -4 66 -9 75 -13z m181 -59 c31 -15 36 -22 36 -51 l0 -34 -90 0 -90
0 0 69 0 70 54 -19 c30 -10 71 -26 90 -35z m666 -20 l0 -65 -40 0 -40 0 0 65
0 65 40 0 40 0 0 -65z m-430 -7 c42 -31 40 -58 -5 -58 -34 0 -35 1 -35 40 0
22 2 40 5 40 3 0 19 -10 35 -22z m650 -23 c0 -31 -3 -35 -25 -35 -22 0 -25 4
-25 35 0 31 3 35 25 35 22 0 25 -4 25 -35z m-785 -10 l30 -24 -37 -1 c-34 0
-38 3 -38 25 0 31 7 31 45 0z"/>
<path d="M3604 2835 c-10 -8 -14 -14 -9 -14 6 0 19 6 29 14 11 8 15 15 10 15
-6 0 -19 -7 -30 -15z"/>
<path d="M2184 3481 c-20 -12 -36 -16 -45 -10 -26 16 -102 10 -137 -11 -39
-24 -42 -24 -42 -5 0 17 -11 20 -25 6 -6 -5 -28 -11 -49 -13 -56 -4 -54 -20 4
-41 49 -18 51 -19 45 -51 -4 -20 -1 -47 8 -68 20 -48 10 -61 -48 -56 -56 4
-70 -13 -27 -31 16 -7 40 -30 53 -51 13 -22 29 -38 34 -36 6 2 9 24 7 49 -3
54 7 63 47 42 17 -8 50 -15 75 -15 43 0 45 -1 58 -40 17 -52 32 -51 36 2 2 23
8 48 14 56 6 7 8 15 5 18 -3 4 3 23 14 42 23 44 24 80 4 128 -13 32 -13 38 2
60 23 35 5 48 -33 25z m-46 -19 c22 -15 -21 -44 -59 -40 -25 2 -33 8 -34 26
-1 19 3 22 39 22 23 0 47 -4 54 -8z m-118 -17 c-7 -8 -17 -15 -22 -15 -6 0 -5
7 2 15 7 8 17 15 22 15 6 0 5 -7 -2 -15z m190 -71 c9 -28 10 -46 1 -74 -13
-45 -36 -68 -44 -46 -3 8 1 20 9 26 18 16 18 41 0 34 -24 -9 -33 62 -11 86 22
24 30 19 45 -26z m-219 -11 c16 -10 29 -24 29 -33 -1 -19 -47 -76 -55 -68 -17
17 -24 118 -8 118 3 0 18 -8 34 -17z m115 -108 c7 -19 14 -39 14 -45 0 -16
-67 -12 -102 6 l-32 17 32 28 c44 39 69 38 88 -6z"/>
<path d="M2370 2754 c0 -37 -1 -37 48 -6 l23 15 -31 14 c-42 17 -40 18 -40
-23z"/>
<path d="M1295 1516 l0 -166 40 0 40 0 -3 76 -4 75 28 -3 c24 -2 31 -11 47
-53 25 -67 52 -95 94 -95 18 0 33 5 33 10 0 6 -4 10 -9 10 -5 0 -17 20 -27 45
-9 25 -29 56 -45 69 l-27 23 34 16 c58 28 59 104 2 133 -19 10 -67 19 -118 22
l-85 4 0 -166z m158 126 c28 -24 23 -86 -9 -111 -15 -12 -37 -21 -50 -21 -23
0 -24 3 -24 74 0 63 3 75 18 78 22 5 42 -1 65 -20z"/>
<path d="M2535 1516 l0 -166 48 0 c44 0 47 1 37 19 -5 11 -10 45 -10 75 0 52
2 56 24 56 28 0 39 -13 55 -62 20 -62 47 -88 91 -88 21 0 42 5 45 10 4 6 1 9
-7 8 -7 -2 -26 23 -43 57 -17 34 -41 65 -55 72 -16 8 -19 13 -9 13 9 0 28 10
43 21 23 18 27 28 24 62 -5 61 -33 77 -149 84 l-94 6 0 -167z m165 128 c19
-19 19 -89 -1 -109 -8 -9 -32 -18 -52 -22 l-37 -6 0 76 c0 64 3 76 18 80 23 6
54 -2 72 -19z"/>
<path d="M3408 1601 c-25 -18 -35 -31 -31 -41 4 -8 9 -55 12 -103 4 -62 10
-90 21 -97 29 -18 79 -15 100 7 13 14 13 14 -8 8 -42 -12 -52 9 -52 106 l0 88
33 4 32 4 -32 1 c-25 2 -32 7 -35 25 l-3 23 -37 -25z"/>
<path d="M1653 1574 c-64 -32 -82 -137 -32 -190 43 -46 124 -50 170 -8 52 47
41 150 -20 191 -40 27 -73 29 -118 7z m81 -9 c36 -36 34 -167 -3 -197 -45 -35
-71 4 -71 105 0 89 34 131 74 92z"/>
<path d="M1913 1575 c-78 -34 -84 -168 -11 -214 28 -18 101 -16 131 3 71 47
60 179 -18 212 -42 17 -61 17 -102 -1z m80 -12 c37 -42 28 -181 -13 -203 -60
-32 -93 141 -39 206 15 19 33 18 52 -3z"/>
<path d="M2155 1577 l-30 -8 0 -110 0 -109 35 0 35 0 0 91 c0 76 3 94 18 103
12 8 22 8 35 0 14 -10 17 -27 17 -103 l0 -91 35 0 35 0 0 91 c0 76 3 94 18
103 12 8 22 8 35 0 14 -10 17 -27 17 -103 l0 -91 35 0 35 0 -3 92 c-4 102 -17
134 -58 144 -18 5 -34 0 -55 -15 l-30 -22 -26 20 c-32 26 -53 26 -86 1 -24
-19 -26 -19 -29 -2 -2 15 -8 17 -33 9z"/>
<path d="M2901 1578 c-94 -51 -86 -192 12 -225 80 -27 152 29 152 118 0 41 -5
53 -31 80 -36 35 -95 47 -133 27z m86 -28 c7 -14 13 -51 13 -82 0 -94 -33
-139 -74 -99 -28 29 -35 135 -11 180 20 39 53 39 72 1z"/>
<path d="M3134 1577 l-30 -9 4 -86 c2 -48 10 -97 17 -108 18 -27 55 -34 94
-18 39 16 40 32 2 26 -17 -2 -32 1 -37 10 -5 7 -11 54 -14 103 l-5 91 -31 -9z"/>
<path d="M3285 1577 l-30 -8 3 -106 c1 -59 4 -108 7 -111 2 -2 20 -1 40 2 28
6 34 10 26 20 -6 7 -12 57 -13 112 l-3 100 -30 -9z"/>
<path d="M3579 1567 c-64 -43 -73 -142 -17 -194 38 -35 108 -34 143 2 29 28
35 57 7 32 -39 -36 -103 -11 -128 49 -8 18 -14 36 -14 39 0 3 36 5 80 5 72 0
80 2 80 19 0 27 -56 71 -89 71 -16 0 -43 -10 -62 -23z m71 -7 c35 -35 26 -50
-31 -50 -48 0 -50 1 -44 23 7 22 32 47 47 47 4 0 17 -9 28 -20z"/>
<path d="M2033 1160 c0 -25 2 -35 4 -22 2 12 2 32 0 45 -2 12 -4 2 -4 -23z"/>
<path d="M2263 1160 c0 -25 2 -35 4 -22 2 12 2 32 0 45 -2 12 -4 2 -4 -23z"/>
<path d="M2463 1160 c0 -25 2 -35 4 -22 2 12 2 32 0 45 -2 12 -4 2 -4 -23z"/>
<path d="M2863 1160 c0 -25 2 -35 4 -22 2 12 2 32 0 45 -2 12 -4 2 -4 -23z"/>
<path d="M2993 1160 c0 -25 2 -35 4 -22 2 12 2 32 0 45 -2 12 -4 2 -4 -23z"/>
<path d="M1932 1160 c0 -14 2 -19 5 -12 2 6 2 18 0 25 -3 6 -5 1 -5 -13z"/>
<path d="M2582 1160 c0 -14 2 -19 5 -12 2 6 2 18 0 25 -3 6 -5 1 -5 -13z"/>
<path d="M2782 1160 c0 -14 2 -19 5 -12 2 6 2 18 0 25 -3 6 -5 1 -5 -13z"/>
</g>
</svg>
